<mxfile host="app.diagrams.net" agent="Mozilla/5.0 (Windows NT 10.0; Win64; x64) AppleWebKit/537.36 (KHTML, like Gecko) Chrome/138.0.0.0 Safari/537.36" version="27.2.0">
  <diagram name="第 1 页" id="wlGB5aXU49AVaNt8Bv_F">
    <mxGraphModel dx="1920" dy="563" grid="1" gridSize="10" guides="1" tooltips="1" connect="1" arrows="1" fold="1" page="1" pageScale="1" pageWidth="827" pageHeight="1169" math="0" shadow="0">
      <root>
        <mxCell id="0" />
        <mxCell id="1" parent="0" />
        <mxCell id="3W7JAmCNGLFrmBNTn6TP-236" style="edgeStyle=orthogonalEdgeStyle;rounded=0;orthogonalLoop=1;jettySize=auto;html=1;exitX=0.5;exitY=1;exitDx=0;exitDy=0;" edge="1" parent="1" source="zN2_1YvV45dY4rmlN28b-1" target="3W7JAmCNGLFrmBNTn6TP-235">
          <mxGeometry relative="1" as="geometry" />
        </mxCell>
        <mxCell id="3W7JAmCNGLFrmBNTn6TP-238" value="rst_n == 1&#39;b1" style="edgeLabel;html=1;align=center;verticalAlign=middle;resizable=0;points=[];" vertex="1" connectable="0" parent="3W7JAmCNGLFrmBNTn6TP-236">
          <mxGeometry x="-0.1993" y="-2" relative="1" as="geometry">
            <mxPoint as="offset" />
          </mxGeometry>
        </mxCell>
        <mxCell id="zN2_1YvV45dY4rmlN28b-1" value="IDLE" style="ellipse;whiteSpace=wrap;html=1;" parent="1" vertex="1">
          <mxGeometry x="330" y="20" width="120" height="80" as="geometry" />
        </mxCell>
        <mxCell id="zN2_1YvV45dY4rmlN28b-67" style="edgeStyle=orthogonalEdgeStyle;rounded=0;orthogonalLoop=1;jettySize=auto;html=1;exitX=1;exitY=0.5;exitDx=0;exitDy=0;entryX=0;entryY=0.5;entryDx=0;entryDy=0;" parent="1" source="zN2_1YvV45dY4rmlN28b-6" target="zN2_1YvV45dY4rmlN28b-68" edge="1">
          <mxGeometry relative="1" as="geometry">
            <mxPoint x="590" y="479.7142857142858" as="targetPoint" />
          </mxGeometry>
        </mxCell>
        <mxCell id="zN2_1YvV45dY4rmlN28b-112" value="move_count == 5&#39;d25" style="edgeLabel;html=1;align=center;verticalAlign=middle;resizable=0;points=[];" parent="zN2_1YvV45dY4rmlN28b-67" vertex="1" connectable="0">
          <mxGeometry x="-0.0438" y="-1" relative="1" as="geometry">
            <mxPoint as="offset" />
          </mxGeometry>
        </mxCell>
        <mxCell id="zN2_1YvV45dY4rmlN28b-85" style="edgeStyle=orthogonalEdgeStyle;rounded=0;orthogonalLoop=1;jettySize=auto;html=1;exitX=0.5;exitY=1;exitDx=0;exitDy=0;curved=1;" parent="1" source="zN2_1YvV45dY4rmlN28b-6" target="zN2_1YvV45dY4rmlN28b-16" edge="1">
          <mxGeometry relative="1" as="geometry">
            <Array as="points">
              <mxPoint x="390" y="640" />
              <mxPoint x="347" y="640" />
            </Array>
          </mxGeometry>
        </mxCell>
        <mxCell id="zN2_1YvV45dY4rmlN28b-86" style="edgeStyle=orthogonalEdgeStyle;rounded=0;orthogonalLoop=1;jettySize=auto;html=1;exitX=0.5;exitY=1;exitDx=0;exitDy=0;curved=1;" parent="1" source="zN2_1YvV45dY4rmlN28b-6" target="zN2_1YvV45dY4rmlN28b-17" edge="1">
          <mxGeometry relative="1" as="geometry">
            <Array as="points">
              <mxPoint x="390" y="640" />
              <mxPoint x="181" y="640" />
            </Array>
          </mxGeometry>
        </mxCell>
        <mxCell id="zN2_1YvV45dY4rmlN28b-87" style="edgeStyle=orthogonalEdgeStyle;rounded=0;orthogonalLoop=1;jettySize=auto;html=1;exitX=0.5;exitY=1;exitDx=0;exitDy=0;curved=1;" parent="1" source="zN2_1YvV45dY4rmlN28b-6" target="zN2_1YvV45dY4rmlN28b-15" edge="1">
          <mxGeometry relative="1" as="geometry">
            <Array as="points">
              <mxPoint x="390" y="630" />
              <mxPoint x="16" y="630" />
            </Array>
          </mxGeometry>
        </mxCell>
        <mxCell id="zN2_1YvV45dY4rmlN28b-88" style="edgeStyle=orthogonalEdgeStyle;rounded=0;orthogonalLoop=1;jettySize=auto;html=1;exitX=0.5;exitY=1;exitDx=0;exitDy=0;entryX=0.5;entryY=0;entryDx=0;entryDy=0;curved=1;" parent="1" source="zN2_1YvV45dY4rmlN28b-6" target="zN2_1YvV45dY4rmlN28b-12" edge="1">
          <mxGeometry relative="1" as="geometry" />
        </mxCell>
        <mxCell id="zN2_1YvV45dY4rmlN28b-113" value="in_valid != 1&#39;b1 &amp;amp;&amp;amp; move_count != 5&#39;d25 &amp;amp;&amp;amp;&amp;nbsp;priority_num == 3&#39;d4" style="edgeLabel;html=1;align=center;verticalAlign=middle;resizable=0;points=[];" parent="zN2_1YvV45dY4rmlN28b-88" vertex="1" connectable="0">
          <mxGeometry x="-0.18" y="-3" relative="1" as="geometry">
            <mxPoint x="-36" y="-2" as="offset" />
          </mxGeometry>
        </mxCell>
        <mxCell id="zN2_1YvV45dY4rmlN28b-89" style="edgeStyle=orthogonalEdgeStyle;rounded=0;orthogonalLoop=1;jettySize=auto;html=1;exitX=0.5;exitY=1;exitDx=0;exitDy=0;entryX=0.5;entryY=0;entryDx=0;entryDy=0;curved=1;" parent="1" source="zN2_1YvV45dY4rmlN28b-6" target="zN2_1YvV45dY4rmlN28b-13" edge="1">
          <mxGeometry relative="1" as="geometry">
            <Array as="points">
              <mxPoint x="390" y="610" />
              <mxPoint x="844" y="610" />
            </Array>
          </mxGeometry>
        </mxCell>
        <mxCell id="zN2_1YvV45dY4rmlN28b-90" style="edgeStyle=orthogonalEdgeStyle;rounded=0;orthogonalLoop=1;jettySize=auto;html=1;exitX=0.5;exitY=1;exitDx=0;exitDy=0;entryX=0.5;entryY=0;entryDx=0;entryDy=0;curved=1;" parent="1" source="zN2_1YvV45dY4rmlN28b-6" target="zN2_1YvV45dY4rmlN28b-11" edge="1">
          <mxGeometry relative="1" as="geometry">
            <Array as="points">
              <mxPoint x="390" y="600" />
              <mxPoint x="1010" y="600" />
            </Array>
          </mxGeometry>
        </mxCell>
        <mxCell id="zN2_1YvV45dY4rmlN28b-91" style="edgeStyle=orthogonalEdgeStyle;rounded=0;orthogonalLoop=1;jettySize=auto;html=1;exitX=0.5;exitY=1;exitDx=0;exitDy=0;entryX=0.5;entryY=0;entryDx=0;entryDy=0;curved=1;" parent="1" source="zN2_1YvV45dY4rmlN28b-6" target="zN2_1YvV45dY4rmlN28b-8" edge="1">
          <mxGeometry relative="1" as="geometry">
            <Array as="points">
              <mxPoint x="390" y="640" />
              <mxPoint x="513" y="640" />
            </Array>
          </mxGeometry>
        </mxCell>
        <mxCell id="zN2_1YvV45dY4rmlN28b-92" style="edgeStyle=orthogonalEdgeStyle;rounded=0;orthogonalLoop=1;jettySize=auto;html=1;exitX=0.5;exitY=1;exitDx=0;exitDy=0;entryX=0.5;entryY=0;entryDx=0;entryDy=0;curved=1;" parent="1" source="zN2_1YvV45dY4rmlN28b-6" target="zN2_1YvV45dY4rmlN28b-14" edge="1">
          <mxGeometry relative="1" as="geometry">
            <Array as="points">
              <mxPoint x="390" y="630" />
              <mxPoint x="679" y="630" />
            </Array>
          </mxGeometry>
        </mxCell>
        <mxCell id="zN2_1YvV45dY4rmlN28b-6" value="STEP_CREAT" style="ellipse;whiteSpace=wrap;html=1;" parent="1" vertex="1">
          <mxGeometry x="330" y="440" width="120" height="80" as="geometry" />
        </mxCell>
        <mxCell id="zN2_1YvV45dY4rmlN28b-97" style="edgeStyle=orthogonalEdgeStyle;rounded=0;orthogonalLoop=1;jettySize=auto;html=1;exitX=0.5;exitY=1;exitDx=0;exitDy=0;entryX=0.5;entryY=0;entryDx=0;entryDy=0;" parent="1" source="zN2_1YvV45dY4rmlN28b-8" target="zN2_1YvV45dY4rmlN28b-35" edge="1">
          <mxGeometry relative="1" as="geometry" />
        </mxCell>
        <mxCell id="zN2_1YvV45dY4rmlN28b-8" value="DIRECT_0" style="ellipse;whiteSpace=wrap;html=1;" parent="1" vertex="1">
          <mxGeometry x="453" y="710" width="120" height="80" as="geometry" />
        </mxCell>
        <mxCell id="zN2_1YvV45dY4rmlN28b-100" style="edgeStyle=orthogonalEdgeStyle;rounded=0;orthogonalLoop=1;jettySize=auto;html=1;exitX=0.5;exitY=1;exitDx=0;exitDy=0;entryX=0.5;entryY=0;entryDx=0;entryDy=0;" parent="1" source="zN2_1YvV45dY4rmlN28b-11" target="zN2_1YvV45dY4rmlN28b-35" edge="1">
          <mxGeometry relative="1" as="geometry" />
        </mxCell>
        <mxCell id="zN2_1YvV45dY4rmlN28b-11" value="DIRECT_3" style="ellipse;whiteSpace=wrap;html=1;" parent="1" vertex="1">
          <mxGeometry x="950" y="710" width="120" height="80" as="geometry" />
        </mxCell>
        <mxCell id="zN2_1YvV45dY4rmlN28b-93" style="edgeStyle=orthogonalEdgeStyle;rounded=0;orthogonalLoop=1;jettySize=auto;html=1;exitX=0.5;exitY=1;exitDx=0;exitDy=0;entryX=0.5;entryY=0;entryDx=0;entryDy=0;" parent="1" source="zN2_1YvV45dY4rmlN28b-12" target="zN2_1YvV45dY4rmlN28b-35" edge="1">
          <mxGeometry relative="1" as="geometry" />
        </mxCell>
        <mxCell id="zN2_1YvV45dY4rmlN28b-12" value="DIRECT_4" style="ellipse;whiteSpace=wrap;html=1;" parent="1" vertex="1">
          <mxGeometry x="-210" y="710" width="120" height="80" as="geometry" />
        </mxCell>
        <mxCell id="zN2_1YvV45dY4rmlN28b-99" style="edgeStyle=orthogonalEdgeStyle;rounded=0;orthogonalLoop=1;jettySize=auto;html=1;exitX=0.5;exitY=1;exitDx=0;exitDy=0;entryX=0.5;entryY=0;entryDx=0;entryDy=0;" parent="1" source="zN2_1YvV45dY4rmlN28b-13" target="zN2_1YvV45dY4rmlN28b-35" edge="1">
          <mxGeometry relative="1" as="geometry" />
        </mxCell>
        <mxCell id="zN2_1YvV45dY4rmlN28b-13" value="DIRECT_2" style="ellipse;whiteSpace=wrap;html=1;" parent="1" vertex="1">
          <mxGeometry x="784" y="710" width="120" height="80" as="geometry" />
        </mxCell>
        <mxCell id="zN2_1YvV45dY4rmlN28b-98" style="edgeStyle=orthogonalEdgeStyle;rounded=0;orthogonalLoop=1;jettySize=auto;html=1;exitX=0.5;exitY=1;exitDx=0;exitDy=0;" parent="1" source="zN2_1YvV45dY4rmlN28b-14" target="zN2_1YvV45dY4rmlN28b-35" edge="1">
          <mxGeometry relative="1" as="geometry" />
        </mxCell>
        <mxCell id="zN2_1YvV45dY4rmlN28b-14" value="DIRECT_1" style="ellipse;whiteSpace=wrap;html=1;" parent="1" vertex="1">
          <mxGeometry x="619" y="710" width="120" height="80" as="geometry" />
        </mxCell>
        <mxCell id="zN2_1YvV45dY4rmlN28b-96" style="edgeStyle=orthogonalEdgeStyle;rounded=0;orthogonalLoop=1;jettySize=auto;html=1;exitX=0.5;exitY=1;exitDx=0;exitDy=0;entryX=0.5;entryY=0;entryDx=0;entryDy=0;" parent="1" source="zN2_1YvV45dY4rmlN28b-16" target="zN2_1YvV45dY4rmlN28b-35" edge="1">
          <mxGeometry relative="1" as="geometry" />
        </mxCell>
        <mxCell id="zN2_1YvV45dY4rmlN28b-16" value="DIRECT_7" style="ellipse;whiteSpace=wrap;html=1;" parent="1" vertex="1">
          <mxGeometry x="287" y="710" width="120" height="80" as="geometry" />
        </mxCell>
        <mxCell id="zN2_1YvV45dY4rmlN28b-95" style="edgeStyle=orthogonalEdgeStyle;rounded=0;orthogonalLoop=1;jettySize=auto;html=1;exitX=0.5;exitY=1;exitDx=0;exitDy=0;" parent="1" source="zN2_1YvV45dY4rmlN28b-17" edge="1">
          <mxGeometry relative="1" as="geometry">
            <mxPoint x="390" y="1010" as="targetPoint" />
          </mxGeometry>
        </mxCell>
        <mxCell id="zN2_1YvV45dY4rmlN28b-17" value="DIRECT_6" style="ellipse;whiteSpace=wrap;html=1;" parent="1" vertex="1">
          <mxGeometry x="121" y="710" width="120" height="80" as="geometry" />
        </mxCell>
        <mxCell id="zN2_1YvV45dY4rmlN28b-101" style="edgeStyle=orthogonalEdgeStyle;rounded=0;orthogonalLoop=1;jettySize=auto;html=1;exitX=0.5;exitY=1;exitDx=0;exitDy=0;" parent="1" source="zN2_1YvV45dY4rmlN28b-35" target="zN2_1YvV45dY4rmlN28b-44" edge="1">
          <mxGeometry relative="1" as="geometry" />
        </mxCell>
        <mxCell id="zN2_1YvV45dY4rmlN28b-117" style="edgeStyle=orthogonalEdgeStyle;rounded=0;orthogonalLoop=1;jettySize=auto;html=1;exitX=1;exitY=0.5;exitDx=0;exitDy=0;entryX=1;entryY=0;entryDx=0;entryDy=0;" parent="1" source="zN2_1YvV45dY4rmlN28b-35" target="zN2_1YvV45dY4rmlN28b-6" edge="1">
          <mxGeometry relative="1" as="geometry">
            <Array as="points">
              <mxPoint x="1220" y="1050" />
              <mxPoint x="1220" y="380" />
              <mxPoint x="432" y="380" />
            </Array>
          </mxGeometry>
        </mxCell>
        <mxCell id="zN2_1YvV45dY4rmlN28b-118" value="check == 1&#39;b1" style="edgeLabel;html=1;align=center;verticalAlign=middle;resizable=0;points=[];" parent="zN2_1YvV45dY4rmlN28b-117" vertex="1" connectable="0">
          <mxGeometry x="-0.957" y="-2" relative="1" as="geometry">
            <mxPoint as="offset" />
          </mxGeometry>
        </mxCell>
        <mxCell id="zN2_1YvV45dY4rmlN28b-35" value="CHECK" style="ellipse;whiteSpace=wrap;html=1;" parent="1" vertex="1">
          <mxGeometry x="330" y="1010" width="120" height="80" as="geometry" />
        </mxCell>
        <mxCell id="zN2_1YvV45dY4rmlN28b-102" style="edgeStyle=orthogonalEdgeStyle;rounded=0;orthogonalLoop=1;jettySize=auto;html=1;exitX=0.5;exitY=1;exitDx=0;exitDy=0;entryX=0;entryY=0.5;entryDx=0;entryDy=0;" parent="1" source="zN2_1YvV45dY4rmlN28b-44" target="zN2_1YvV45dY4rmlN28b-6" edge="1">
          <mxGeometry relative="1" as="geometry">
            <Array as="points">
              <mxPoint x="390" y="1269" />
              <mxPoint x="-530" y="1269" />
              <mxPoint x="-530" y="480" />
            </Array>
          </mxGeometry>
        </mxCell>
        <mxCell id="zN2_1YvV45dY4rmlN28b-116" value="back_cont == 4&#39;d8 &amp;amp;&amp;amp; check == 1&#39;b0" style="edgeLabel;html=1;align=center;verticalAlign=middle;resizable=0;points=[];" parent="zN2_1YvV45dY4rmlN28b-102" vertex="1" connectable="0">
          <mxGeometry x="-0.8368" relative="1" as="geometry">
            <mxPoint as="offset" />
          </mxGeometry>
        </mxCell>
        <mxCell id="zN2_1YvV45dY4rmlN28b-103" style="edgeStyle=orthogonalEdgeStyle;rounded=0;orthogonalLoop=1;jettySize=auto;html=1;exitX=0;exitY=0.5;exitDx=0;exitDy=0;entryX=0;entryY=1;entryDx=0;entryDy=0;" parent="1" source="zN2_1YvV45dY4rmlN28b-44" target="zN2_1YvV45dY4rmlN28b-12" edge="1">
          <mxGeometry relative="1" as="geometry" />
        </mxCell>
        <mxCell id="zN2_1YvV45dY4rmlN28b-104" style="edgeStyle=orthogonalEdgeStyle;rounded=0;orthogonalLoop=1;jettySize=auto;html=1;exitX=0;exitY=0.5;exitDx=0;exitDy=0;entryX=0;entryY=1;entryDx=0;entryDy=0;" parent="1" source="zN2_1YvV45dY4rmlN28b-44" target="zN2_1YvV45dY4rmlN28b-15" edge="1">
          <mxGeometry relative="1" as="geometry" />
        </mxCell>
        <mxCell id="zN2_1YvV45dY4rmlN28b-119" value="back_count != 5&#39;d8 &amp;amp;&amp;amp; prionity == 3&#39;d5" style="edgeLabel;html=1;align=center;verticalAlign=middle;resizable=0;points=[];" parent="zN2_1YvV45dY4rmlN28b-104" vertex="1" connectable="0">
          <mxGeometry x="0.2069" y="-1" relative="1" as="geometry">
            <mxPoint as="offset" />
          </mxGeometry>
        </mxCell>
        <mxCell id="zN2_1YvV45dY4rmlN28b-106" style="edgeStyle=orthogonalEdgeStyle;rounded=0;orthogonalLoop=1;jettySize=auto;html=1;exitX=0;exitY=0.5;exitDx=0;exitDy=0;entryX=0;entryY=1;entryDx=0;entryDy=0;" parent="1" source="zN2_1YvV45dY4rmlN28b-44" target="zN2_1YvV45dY4rmlN28b-16" edge="1">
          <mxGeometry relative="1" as="geometry" />
        </mxCell>
        <mxCell id="zN2_1YvV45dY4rmlN28b-107" style="edgeStyle=orthogonalEdgeStyle;rounded=0;orthogonalLoop=1;jettySize=auto;html=1;exitX=1;exitY=0.5;exitDx=0;exitDy=0;entryX=1;entryY=1;entryDx=0;entryDy=0;" parent="1" source="zN2_1YvV45dY4rmlN28b-44" target="zN2_1YvV45dY4rmlN28b-8" edge="1">
          <mxGeometry relative="1" as="geometry" />
        </mxCell>
        <mxCell id="zN2_1YvV45dY4rmlN28b-108" style="edgeStyle=orthogonalEdgeStyle;rounded=0;orthogonalLoop=1;jettySize=auto;html=1;exitX=1;exitY=0.5;exitDx=0;exitDy=0;entryX=1;entryY=1;entryDx=0;entryDy=0;" parent="1" source="zN2_1YvV45dY4rmlN28b-44" target="zN2_1YvV45dY4rmlN28b-14" edge="1">
          <mxGeometry relative="1" as="geometry" />
        </mxCell>
        <mxCell id="zN2_1YvV45dY4rmlN28b-109" style="edgeStyle=orthogonalEdgeStyle;rounded=0;orthogonalLoop=1;jettySize=auto;html=1;exitX=1;exitY=0.5;exitDx=0;exitDy=0;entryX=1;entryY=1;entryDx=0;entryDy=0;" parent="1" source="zN2_1YvV45dY4rmlN28b-44" target="zN2_1YvV45dY4rmlN28b-13" edge="1">
          <mxGeometry relative="1" as="geometry" />
        </mxCell>
        <mxCell id="zN2_1YvV45dY4rmlN28b-110" style="edgeStyle=orthogonalEdgeStyle;rounded=0;orthogonalLoop=1;jettySize=auto;html=1;exitX=1;exitY=0.5;exitDx=0;exitDy=0;entryX=1;entryY=1;entryDx=0;entryDy=0;" parent="1" source="zN2_1YvV45dY4rmlN28b-44" target="zN2_1YvV45dY4rmlN28b-11" edge="1">
          <mxGeometry relative="1" as="geometry" />
        </mxCell>
        <mxCell id="zN2_1YvV45dY4rmlN28b-44" value="BACK" style="ellipse;whiteSpace=wrap;html=1;" parent="1" vertex="1">
          <mxGeometry x="330" y="1169" width="120" height="80" as="geometry" />
        </mxCell>
        <mxCell id="zN2_1YvV45dY4rmlN28b-68" value="OUTPUT" style="ellipse;whiteSpace=wrap;html=1;" parent="1" vertex="1">
          <mxGeometry x="600" y="440" width="120" height="80" as="geometry" />
        </mxCell>
        <mxCell id="zN2_1YvV45dY4rmlN28b-94" style="edgeStyle=orthogonalEdgeStyle;rounded=0;orthogonalLoop=1;jettySize=auto;html=1;exitX=0.5;exitY=1;exitDx=0;exitDy=0;entryX=0.5;entryY=0;entryDx=0;entryDy=0;" parent="1" source="zN2_1YvV45dY4rmlN28b-15" target="zN2_1YvV45dY4rmlN28b-35" edge="1">
          <mxGeometry relative="1" as="geometry" />
        </mxCell>
        <mxCell id="zN2_1YvV45dY4rmlN28b-15" value="DIRECT_5" style="ellipse;whiteSpace=wrap;html=1;" parent="1" vertex="1">
          <mxGeometry x="-44" y="710" width="120" height="80" as="geometry" />
        </mxCell>
        <mxCell id="zN2_1YvV45dY4rmlN28b-105" style="edgeStyle=orthogonalEdgeStyle;rounded=0;orthogonalLoop=1;jettySize=auto;html=1;exitX=0;exitY=0.5;exitDx=0;exitDy=0;entryX=0.065;entryY=0.816;entryDx=0;entryDy=0;entryPerimeter=0;" parent="1" source="zN2_1YvV45dY4rmlN28b-44" target="zN2_1YvV45dY4rmlN28b-17" edge="1">
          <mxGeometry relative="1" as="geometry" />
        </mxCell>
        <mxCell id="3W7JAmCNGLFrmBNTn6TP-198" value="" style="shape=table;startSize=0;container=1;collapsible=0;childLayout=tableLayout;" vertex="1" parent="1">
          <mxGeometry x="1470" y="260" width="550" height="500" as="geometry" />
        </mxCell>
        <mxCell id="3W7JAmCNGLFrmBNTn6TP-199" value="" style="shape=tableRow;horizontal=0;startSize=0;swimlaneHead=0;swimlaneBody=0;strokeColor=inherit;top=0;left=0;bottom=0;right=0;collapsible=0;dropTarget=0;fillColor=none;points=[[0,0.5],[1,0.5]];portConstraint=eastwest;" vertex="1" parent="3W7JAmCNGLFrmBNTn6TP-198">
          <mxGeometry width="550" height="100" as="geometry" />
        </mxCell>
        <mxCell id="3W7JAmCNGLFrmBNTn6TP-200" value="" style="shape=partialRectangle;html=1;whiteSpace=wrap;connectable=0;strokeColor=inherit;overflow=hidden;fillColor=none;top=0;left=0;bottom=0;right=0;pointerEvents=1;" vertex="1" parent="3W7JAmCNGLFrmBNTn6TP-199">
          <mxGeometry width="110" height="100" as="geometry">
            <mxRectangle width="110" height="100" as="alternateBounds" />
          </mxGeometry>
        </mxCell>
        <mxCell id="3W7JAmCNGLFrmBNTn6TP-201" value="" style="shape=partialRectangle;html=1;whiteSpace=wrap;connectable=0;strokeColor=inherit;overflow=hidden;fillColor=none;top=0;left=0;bottom=0;right=0;pointerEvents=1;" vertex="1" parent="3W7JAmCNGLFrmBNTn6TP-199">
          <mxGeometry x="110" width="110" height="100" as="geometry">
            <mxRectangle width="110" height="100" as="alternateBounds" />
          </mxGeometry>
        </mxCell>
        <mxCell id="3W7JAmCNGLFrmBNTn6TP-202" value="" style="shape=partialRectangle;html=1;whiteSpace=wrap;connectable=0;strokeColor=inherit;overflow=hidden;fillColor=none;top=0;left=0;bottom=0;right=0;pointerEvents=1;" vertex="1" parent="3W7JAmCNGLFrmBNTn6TP-199">
          <mxGeometry x="220" width="110" height="100" as="geometry">
            <mxRectangle width="110" height="100" as="alternateBounds" />
          </mxGeometry>
        </mxCell>
        <mxCell id="3W7JAmCNGLFrmBNTn6TP-203" value="" style="shape=partialRectangle;html=1;whiteSpace=wrap;connectable=0;strokeColor=inherit;overflow=hidden;fillColor=none;top=0;left=0;bottom=0;right=0;pointerEvents=1;" vertex="1" parent="3W7JAmCNGLFrmBNTn6TP-199">
          <mxGeometry x="330" width="110" height="100" as="geometry">
            <mxRectangle width="110" height="100" as="alternateBounds" />
          </mxGeometry>
        </mxCell>
        <mxCell id="3W7JAmCNGLFrmBNTn6TP-204" value="" style="shape=partialRectangle;html=1;whiteSpace=wrap;connectable=0;strokeColor=inherit;overflow=hidden;fillColor=none;top=0;left=0;bottom=0;right=0;pointerEvents=1;" vertex="1" parent="3W7JAmCNGLFrmBNTn6TP-199">
          <mxGeometry x="440" width="110" height="100" as="geometry">
            <mxRectangle width="110" height="100" as="alternateBounds" />
          </mxGeometry>
        </mxCell>
        <mxCell id="3W7JAmCNGLFrmBNTn6TP-205" value="" style="shape=tableRow;horizontal=0;startSize=0;swimlaneHead=0;swimlaneBody=0;strokeColor=inherit;top=0;left=0;bottom=0;right=0;collapsible=0;dropTarget=0;fillColor=none;points=[[0,0.5],[1,0.5]];portConstraint=eastwest;" vertex="1" parent="3W7JAmCNGLFrmBNTn6TP-198">
          <mxGeometry y="100" width="550" height="100" as="geometry" />
        </mxCell>
        <mxCell id="3W7JAmCNGLFrmBNTn6TP-206" value="" style="shape=partialRectangle;html=1;whiteSpace=wrap;connectable=0;strokeColor=inherit;overflow=hidden;fillColor=none;top=0;left=0;bottom=0;right=0;pointerEvents=1;" vertex="1" parent="3W7JAmCNGLFrmBNTn6TP-205">
          <mxGeometry width="110" height="100" as="geometry">
            <mxRectangle width="110" height="100" as="alternateBounds" />
          </mxGeometry>
        </mxCell>
        <mxCell id="3W7JAmCNGLFrmBNTn6TP-207" value="" style="shape=partialRectangle;html=1;whiteSpace=wrap;connectable=0;strokeColor=inherit;overflow=hidden;fillColor=none;top=0;left=0;bottom=0;right=0;pointerEvents=1;" vertex="1" parent="3W7JAmCNGLFrmBNTn6TP-205">
          <mxGeometry x="110" width="110" height="100" as="geometry">
            <mxRectangle width="110" height="100" as="alternateBounds" />
          </mxGeometry>
        </mxCell>
        <mxCell id="3W7JAmCNGLFrmBNTn6TP-208" value="" style="shape=partialRectangle;html=1;whiteSpace=wrap;connectable=0;strokeColor=inherit;overflow=hidden;fillColor=none;top=0;left=0;bottom=0;right=0;pointerEvents=1;" vertex="1" parent="3W7JAmCNGLFrmBNTn6TP-205">
          <mxGeometry x="220" width="110" height="100" as="geometry">
            <mxRectangle width="110" height="100" as="alternateBounds" />
          </mxGeometry>
        </mxCell>
        <mxCell id="3W7JAmCNGLFrmBNTn6TP-209" value="" style="shape=partialRectangle;html=1;whiteSpace=wrap;connectable=0;strokeColor=inherit;overflow=hidden;fillColor=none;top=0;left=0;bottom=0;right=0;pointerEvents=1;" vertex="1" parent="3W7JAmCNGLFrmBNTn6TP-205">
          <mxGeometry x="330" width="110" height="100" as="geometry">
            <mxRectangle width="110" height="100" as="alternateBounds" />
          </mxGeometry>
        </mxCell>
        <mxCell id="3W7JAmCNGLFrmBNTn6TP-210" value="" style="shape=partialRectangle;html=1;whiteSpace=wrap;connectable=0;strokeColor=inherit;overflow=hidden;fillColor=none;top=0;left=0;bottom=0;right=0;pointerEvents=1;" vertex="1" parent="3W7JAmCNGLFrmBNTn6TP-205">
          <mxGeometry x="440" width="110" height="100" as="geometry">
            <mxRectangle width="110" height="100" as="alternateBounds" />
          </mxGeometry>
        </mxCell>
        <mxCell id="3W7JAmCNGLFrmBNTn6TP-211" value="" style="shape=tableRow;horizontal=0;startSize=0;swimlaneHead=0;swimlaneBody=0;strokeColor=inherit;top=0;left=0;bottom=0;right=0;collapsible=0;dropTarget=0;fillColor=none;points=[[0,0.5],[1,0.5]];portConstraint=eastwest;" vertex="1" parent="3W7JAmCNGLFrmBNTn6TP-198">
          <mxGeometry y="200" width="550" height="100" as="geometry" />
        </mxCell>
        <mxCell id="3W7JAmCNGLFrmBNTn6TP-212" value="" style="shape=partialRectangle;html=1;whiteSpace=wrap;connectable=0;strokeColor=inherit;overflow=hidden;fillColor=none;top=0;left=0;bottom=0;right=0;pointerEvents=1;" vertex="1" parent="3W7JAmCNGLFrmBNTn6TP-211">
          <mxGeometry width="110" height="100" as="geometry">
            <mxRectangle width="110" height="100" as="alternateBounds" />
          </mxGeometry>
        </mxCell>
        <mxCell id="3W7JAmCNGLFrmBNTn6TP-213" value="" style="shape=partialRectangle;html=1;whiteSpace=wrap;connectable=0;strokeColor=inherit;overflow=hidden;fillColor=none;top=0;left=0;bottom=0;right=0;pointerEvents=1;" vertex="1" parent="3W7JAmCNGLFrmBNTn6TP-211">
          <mxGeometry x="110" width="110" height="100" as="geometry">
            <mxRectangle width="110" height="100" as="alternateBounds" />
          </mxGeometry>
        </mxCell>
        <mxCell id="3W7JAmCNGLFrmBNTn6TP-214" value="" style="shape=partialRectangle;html=1;whiteSpace=wrap;connectable=0;strokeColor=inherit;overflow=hidden;fillColor=none;top=0;left=0;bottom=0;right=0;pointerEvents=1;" vertex="1" parent="3W7JAmCNGLFrmBNTn6TP-211">
          <mxGeometry x="220" width="110" height="100" as="geometry">
            <mxRectangle width="110" height="100" as="alternateBounds" />
          </mxGeometry>
        </mxCell>
        <mxCell id="3W7JAmCNGLFrmBNTn6TP-215" value="" style="shape=partialRectangle;html=1;whiteSpace=wrap;connectable=0;strokeColor=inherit;overflow=hidden;fillColor=none;top=0;left=0;bottom=0;right=0;pointerEvents=1;" vertex="1" parent="3W7JAmCNGLFrmBNTn6TP-211">
          <mxGeometry x="330" width="110" height="100" as="geometry">
            <mxRectangle width="110" height="100" as="alternateBounds" />
          </mxGeometry>
        </mxCell>
        <mxCell id="3W7JAmCNGLFrmBNTn6TP-216" value="" style="shape=partialRectangle;html=1;whiteSpace=wrap;connectable=0;strokeColor=inherit;overflow=hidden;fillColor=none;top=0;left=0;bottom=0;right=0;pointerEvents=1;" vertex="1" parent="3W7JAmCNGLFrmBNTn6TP-211">
          <mxGeometry x="440" width="110" height="100" as="geometry">
            <mxRectangle width="110" height="100" as="alternateBounds" />
          </mxGeometry>
        </mxCell>
        <mxCell id="3W7JAmCNGLFrmBNTn6TP-217" value="" style="shape=tableRow;horizontal=0;startSize=0;swimlaneHead=0;swimlaneBody=0;strokeColor=inherit;top=0;left=0;bottom=0;right=0;collapsible=0;dropTarget=0;fillColor=none;points=[[0,0.5],[1,0.5]];portConstraint=eastwest;" vertex="1" parent="3W7JAmCNGLFrmBNTn6TP-198">
          <mxGeometry y="300" width="550" height="100" as="geometry" />
        </mxCell>
        <mxCell id="3W7JAmCNGLFrmBNTn6TP-218" value="" style="shape=partialRectangle;html=1;whiteSpace=wrap;connectable=0;strokeColor=inherit;overflow=hidden;fillColor=none;top=0;left=0;bottom=0;right=0;pointerEvents=1;" vertex="1" parent="3W7JAmCNGLFrmBNTn6TP-217">
          <mxGeometry width="110" height="100" as="geometry">
            <mxRectangle width="110" height="100" as="alternateBounds" />
          </mxGeometry>
        </mxCell>
        <mxCell id="3W7JAmCNGLFrmBNTn6TP-219" value="" style="shape=partialRectangle;html=1;whiteSpace=wrap;connectable=0;strokeColor=inherit;overflow=hidden;fillColor=none;top=0;left=0;bottom=0;right=0;pointerEvents=1;" vertex="1" parent="3W7JAmCNGLFrmBNTn6TP-217">
          <mxGeometry x="110" width="110" height="100" as="geometry">
            <mxRectangle width="110" height="100" as="alternateBounds" />
          </mxGeometry>
        </mxCell>
        <mxCell id="3W7JAmCNGLFrmBNTn6TP-220" value="" style="shape=partialRectangle;html=1;whiteSpace=wrap;connectable=0;strokeColor=inherit;overflow=hidden;fillColor=none;top=0;left=0;bottom=0;right=0;pointerEvents=1;" vertex="1" parent="3W7JAmCNGLFrmBNTn6TP-217">
          <mxGeometry x="220" width="110" height="100" as="geometry">
            <mxRectangle width="110" height="100" as="alternateBounds" />
          </mxGeometry>
        </mxCell>
        <mxCell id="3W7JAmCNGLFrmBNTn6TP-221" value="" style="shape=partialRectangle;html=1;whiteSpace=wrap;connectable=0;strokeColor=inherit;overflow=hidden;fillColor=none;top=0;left=0;bottom=0;right=0;pointerEvents=1;" vertex="1" parent="3W7JAmCNGLFrmBNTn6TP-217">
          <mxGeometry x="330" width="110" height="100" as="geometry">
            <mxRectangle width="110" height="100" as="alternateBounds" />
          </mxGeometry>
        </mxCell>
        <mxCell id="3W7JAmCNGLFrmBNTn6TP-222" value="" style="shape=partialRectangle;html=1;whiteSpace=wrap;connectable=0;strokeColor=inherit;overflow=hidden;fillColor=none;top=0;left=0;bottom=0;right=0;pointerEvents=1;" vertex="1" parent="3W7JAmCNGLFrmBNTn6TP-217">
          <mxGeometry x="440" width="110" height="100" as="geometry">
            <mxRectangle width="110" height="100" as="alternateBounds" />
          </mxGeometry>
        </mxCell>
        <mxCell id="3W7JAmCNGLFrmBNTn6TP-223" value="" style="shape=tableRow;horizontal=0;startSize=0;swimlaneHead=0;swimlaneBody=0;strokeColor=inherit;top=0;left=0;bottom=0;right=0;collapsible=0;dropTarget=0;fillColor=none;points=[[0,0.5],[1,0.5]];portConstraint=eastwest;" vertex="1" parent="3W7JAmCNGLFrmBNTn6TP-198">
          <mxGeometry y="400" width="550" height="100" as="geometry" />
        </mxCell>
        <mxCell id="3W7JAmCNGLFrmBNTn6TP-224" value="" style="shape=partialRectangle;html=1;whiteSpace=wrap;connectable=0;strokeColor=inherit;overflow=hidden;fillColor=none;top=0;left=0;bottom=0;right=0;pointerEvents=1;" vertex="1" parent="3W7JAmCNGLFrmBNTn6TP-223">
          <mxGeometry width="110" height="100" as="geometry">
            <mxRectangle width="110" height="100" as="alternateBounds" />
          </mxGeometry>
        </mxCell>
        <mxCell id="3W7JAmCNGLFrmBNTn6TP-225" value="" style="shape=partialRectangle;html=1;whiteSpace=wrap;connectable=0;strokeColor=inherit;overflow=hidden;fillColor=none;top=0;left=0;bottom=0;right=0;pointerEvents=1;" vertex="1" parent="3W7JAmCNGLFrmBNTn6TP-223">
          <mxGeometry x="110" width="110" height="100" as="geometry">
            <mxRectangle width="110" height="100" as="alternateBounds" />
          </mxGeometry>
        </mxCell>
        <mxCell id="3W7JAmCNGLFrmBNTn6TP-226" value="" style="shape=partialRectangle;html=1;whiteSpace=wrap;connectable=0;strokeColor=inherit;overflow=hidden;fillColor=none;top=0;left=0;bottom=0;right=0;pointerEvents=1;" vertex="1" parent="3W7JAmCNGLFrmBNTn6TP-223">
          <mxGeometry x="220" width="110" height="100" as="geometry">
            <mxRectangle width="110" height="100" as="alternateBounds" />
          </mxGeometry>
        </mxCell>
        <mxCell id="3W7JAmCNGLFrmBNTn6TP-227" value="" style="shape=partialRectangle;html=1;whiteSpace=wrap;connectable=0;strokeColor=inherit;overflow=hidden;fillColor=none;top=0;left=0;bottom=0;right=0;pointerEvents=1;" vertex="1" parent="3W7JAmCNGLFrmBNTn6TP-223">
          <mxGeometry x="330" width="110" height="100" as="geometry">
            <mxRectangle width="110" height="100" as="alternateBounds" />
          </mxGeometry>
        </mxCell>
        <mxCell id="3W7JAmCNGLFrmBNTn6TP-228" value="" style="shape=partialRectangle;html=1;whiteSpace=wrap;connectable=0;strokeColor=inherit;overflow=hidden;fillColor=none;top=0;left=0;bottom=0;right=0;pointerEvents=1;" vertex="1" parent="3W7JAmCNGLFrmBNTn6TP-223">
          <mxGeometry x="440" width="110" height="100" as="geometry">
            <mxRectangle width="110" height="100" as="alternateBounds" />
          </mxGeometry>
        </mxCell>
        <mxCell id="3W7JAmCNGLFrmBNTn6TP-229" value="" style="shape=actor;whiteSpace=wrap;html=1;gradientColor=none;fillColor=#000000;" vertex="1" parent="1">
          <mxGeometry x="1725" y="480" width="40" height="60" as="geometry" />
        </mxCell>
        <mxCell id="3W7JAmCNGLFrmBNTn6TP-230" value="&lt;font style=&quot;font-size: 31px;&quot;&gt;0&lt;/font&gt;" style="text;html=1;align=center;verticalAlign=middle;resizable=0;points=[];autosize=1;strokeColor=none;fillColor=none;" vertex="1" parent="1">
          <mxGeometry x="1410" y="290" width="40" height="50" as="geometry" />
        </mxCell>
        <mxCell id="3W7JAmCNGLFrmBNTn6TP-231" value="&lt;font style=&quot;font-size: 31px;&quot;&gt;4&lt;/font&gt;" style="text;html=1;align=center;verticalAlign=middle;resizable=0;points=[];autosize=1;strokeColor=none;fillColor=none;" vertex="1" parent="1">
          <mxGeometry x="1410" y="690" width="40" height="50" as="geometry" />
        </mxCell>
        <mxCell id="3W7JAmCNGLFrmBNTn6TP-232" value="&lt;font style=&quot;font-size: 31px;&quot;&gt;0&lt;/font&gt;" style="text;html=1;align=center;verticalAlign=middle;resizable=0;points=[];autosize=1;strokeColor=none;fillColor=none;" vertex="1" parent="1">
          <mxGeometry x="1500" y="200" width="40" height="50" as="geometry" />
        </mxCell>
        <mxCell id="3W7JAmCNGLFrmBNTn6TP-233" value="&lt;font style=&quot;font-size: 31px;&quot;&gt;4&lt;/font&gt;" style="text;html=1;align=center;verticalAlign=middle;resizable=0;points=[];autosize=1;strokeColor=none;fillColor=none;" vertex="1" parent="1">
          <mxGeometry x="1950" y="200" width="40" height="50" as="geometry" />
        </mxCell>
        <mxCell id="3W7JAmCNGLFrmBNTn6TP-234" value="&lt;font style=&quot;font-size: 31px;&quot;&gt;4&lt;/font&gt;" style="text;html=1;align=center;verticalAlign=middle;resizable=0;points=[];autosize=1;strokeColor=none;fillColor=none;" vertex="1" parent="1">
          <mxGeometry x="1620" y="390" width="40" height="50" as="geometry" />
        </mxCell>
        <mxCell id="3W7JAmCNGLFrmBNTn6TP-237" style="edgeStyle=orthogonalEdgeStyle;rounded=0;orthogonalLoop=1;jettySize=auto;html=1;exitX=0.5;exitY=1;exitDx=0;exitDy=0;entryX=0.5;entryY=0;entryDx=0;entryDy=0;" edge="1" parent="1" source="3W7JAmCNGLFrmBNTn6TP-235" target="zN2_1YvV45dY4rmlN28b-6">
          <mxGeometry relative="1" as="geometry">
            <mxPoint x="393.1999999999998" y="430" as="targetPoint" />
          </mxGeometry>
        </mxCell>
        <mxCell id="3W7JAmCNGLFrmBNTn6TP-235" value="INPUT" style="ellipse;whiteSpace=wrap;html=1;" vertex="1" parent="1">
          <mxGeometry x="330" y="210" width="120" height="80" as="geometry" />
        </mxCell>
        <mxCell id="3W7JAmCNGLFrmBNTn6TP-242" value="&lt;br&gt;&lt;table class=&quot;MsoNormalTable&quot; border=&quot;1&quot; cellspacing=&quot;0&quot; cellpadding=&quot;0&quot; width=&quot;216&quot; style=&quot;width:162.0pt;border-collapse:collapse;border:none;mso-border-alt:solid windowtext .5pt;&amp;lt;br/&amp;gt; mso-yfti-tbllook:1184;mso-padding-alt:0cm 1.4pt 0cm 1.4pt;mso-border-insideh:&amp;lt;br/&amp;gt; .5pt solid windowtext;mso-border-insidev:.5pt solid windowtext&quot;&gt;&lt;tbody&gt;&lt;tr style=&quot;mso-yfti-irow:0;mso-yfti-firstrow:yes;height:16.5pt&quot;&gt;&lt;td width=&quot;72&quot; nowrap=&quot;&quot; style=&quot;width: 54pt; border: 1pt solid windowtext; padding: 0cm 1.4pt; height: 16.5pt;&quot;&gt;&lt;/td&gt;&lt;td width=&quot;72&quot; nowrap=&quot;&quot; style=&quot;width: 54pt; border: 1pt solid windowtext; padding: 0cm 1.4pt; height: 16.5pt;&quot;&gt;&lt;br&gt;  &lt;p class=&quot;MsoNormal&quot; align=&quot;center&quot; style=&quot;margin-bottom:0cm;text-align:center;&amp;lt;br/&amp;gt;  line-height:normal;mso-pagination:widow-orphan&quot;&gt;&lt;span lang=&quot;EN-US&quot; style=&quot;font-family: 新細明體, serif; color: black;&quot;&gt;x&lt;/span&gt;&lt;/p&gt;&lt;br&gt;  &lt;/td&gt;  &lt;td width=&quot;72&quot; nowrap=&quot;&quot; style=&quot;width: 54pt; border: 1pt solid windowtext; padding: 0cm 1.4pt; height: 16.5pt;&quot;&gt;&lt;br&gt;  &lt;p class=&quot;MsoNormal&quot; align=&quot;center&quot; style=&quot;margin-bottom:0cm;text-align:center;&amp;lt;br/&amp;gt;  line-height:normal;mso-pagination:widow-orphan&quot;&gt;&lt;span lang=&quot;EN-US&quot; style=&quot;font-family: 新細明體, serif; color: black;&quot;&gt;y&lt;/span&gt;&lt;/p&gt;&lt;br&gt;  &lt;/td&gt; &lt;/tr&gt; &lt;tr style=&quot;mso-yfti-irow:1;height:16.5pt&quot;&gt;  &lt;td width=&quot;72&quot; nowrap=&quot;&quot; style=&quot;width: 54pt; border: 1pt solid windowtext; height: 16.5pt;&quot;&gt;&lt;br&gt;  &lt;p class=&quot;MsoNormal&quot; align=&quot;center&quot; style=&quot;margin-bottom:0cm;text-align:center;&amp;lt;br/&amp;gt;  line-height:normal;mso-pagination:widow-orphan&quot;&gt;&lt;span lang=&quot;EN-US&quot; style=&quot;font-family: 新細明體, serif; color: black;&quot;&gt;0&lt;/span&gt;&lt;/p&gt;&lt;br&gt;  &lt;/td&gt;  &lt;td width=&quot;72&quot; nowrap=&quot;&quot; style=&quot;width: 54pt; border-top: none; border-left: none; border-right: 1pt solid windowtext; padding: 0cm 1.4pt; height: 16.5pt;&quot;&gt;&lt;br&gt;  &lt;p class=&quot;MsoNormal&quot; align=&quot;center&quot; style=&quot;margin-bottom:0cm;text-align:center;&amp;lt;br/&amp;gt;  line-height:normal;mso-pagination:widow-orphan&quot;&gt;&lt;span lang=&quot;EN-US&quot; style=&quot;font-family: 新細明體, serif; color: black;&quot;&gt;-1&lt;/span&gt;&lt;/p&gt;&lt;br&gt;  &lt;/td&gt;  &lt;td width=&quot;72&quot; nowrap=&quot;&quot; style=&quot;width: 54pt; border-top: none; border-left: none; border-right: 1pt solid windowtext; padding: 0cm 1.4pt; height: 16.5pt;&quot;&gt;&lt;br&gt;  &lt;p class=&quot;MsoNormal&quot; align=&quot;center&quot; style=&quot;margin-bottom:0cm;text-align:center;&amp;lt;br/&amp;gt;  line-height:normal;mso-pagination:widow-orphan&quot;&gt;&lt;span lang=&quot;EN-US&quot; style=&quot;font-family: 新細明體, serif; color: black;&quot;&gt;+2&lt;/span&gt;&lt;/p&gt;&lt;br&gt;  &lt;/td&gt; &lt;/tr&gt; &lt;tr style=&quot;mso-yfti-irow:2;height:16.5pt&quot;&gt;  &lt;td width=&quot;72&quot; nowrap=&quot;&quot; style=&quot;width: 54pt; border: 1pt solid windowtext; height: 16.5pt;&quot;&gt;&lt;br&gt;  &lt;p class=&quot;MsoNormal&quot; align=&quot;center&quot; style=&quot;margin-bottom:0cm;text-align:center;&amp;lt;br/&amp;gt;  line-height:normal;mso-pagination:widow-orphan&quot;&gt;&lt;span lang=&quot;EN-US&quot; style=&quot;font-family: 新細明體, serif; color: black;&quot;&gt;1&lt;/span&gt;&lt;/p&gt;&lt;br&gt;  &lt;/td&gt;  &lt;td width=&quot;72&quot; nowrap=&quot;&quot; style=&quot;width: 54pt; border-top: none; border-left: none; border-right: 1pt solid windowtext; padding: 0cm 1.4pt; height: 16.5pt;&quot;&gt;&lt;br&gt;  &lt;p class=&quot;MsoNormal&quot; align=&quot;center&quot; style=&quot;margin-bottom:0cm;text-align:center;&amp;lt;br/&amp;gt;  line-height:normal;mso-pagination:widow-orphan&quot;&gt;&lt;span lang=&quot;EN-US&quot; style=&quot;font-family: 新細明體, serif; color: black;&quot;&gt;+1&lt;/span&gt;&lt;/p&gt;&lt;br&gt;  &lt;/td&gt;  &lt;td width=&quot;72&quot; nowrap=&quot;&quot; style=&quot;width: 54pt; border-top: none; border-left: none; border-right: 1pt solid windowtext; padding: 0cm 1.4pt; height: 16.5pt;&quot;&gt;&lt;br&gt;  &lt;p class=&quot;MsoNormal&quot; align=&quot;center&quot; style=&quot;margin-bottom:0cm;text-align:center;&amp;lt;br/&amp;gt;  line-height:normal;mso-pagination:widow-orphan&quot;&gt;&lt;span lang=&quot;EN-US&quot; style=&quot;font-family: 新細明體, serif; color: black;&quot;&gt;+2&lt;/span&gt;&lt;/p&gt;&lt;br&gt;  &lt;/td&gt; &lt;/tr&gt; &lt;tr style=&quot;mso-yfti-irow:3;height:16.5pt&quot;&gt;  &lt;td width=&quot;72&quot; nowrap=&quot;&quot; style=&quot;width: 54pt; border: 1pt solid windowtext; height: 16.5pt;&quot;&gt;&lt;br&gt;  &lt;p class=&quot;MsoNormal&quot; align=&quot;center&quot; style=&quot;margin-bottom:0cm;text-align:center;&amp;lt;br/&amp;gt;  line-height:normal;mso-pagination:widow-orphan&quot;&gt;&lt;span lang=&quot;EN-US&quot; style=&quot;font-family: 新細明體, serif; color: black;&quot;&gt;2&lt;/span&gt;&lt;/p&gt;&lt;br&gt;  &lt;/td&gt;  &lt;td width=&quot;72&quot; nowrap=&quot;&quot; style=&quot;width: 54pt; border-top: none; border-left: none; border-right: 1pt solid windowtext; padding: 0cm 1.4pt; height: 16.5pt;&quot;&gt;&lt;br&gt;  &lt;p class=&quot;MsoNormal&quot; align=&quot;center&quot; style=&quot;margin-bottom:0cm;text-align:center;&amp;lt;br/&amp;gt;  line-height:normal;mso-pagination:widow-orphan&quot;&gt;&lt;span lang=&quot;EN-US&quot; style=&quot;font-family: 新細明體, serif; color: black;&quot;&gt;+2&lt;/span&gt;&lt;/p&gt;&lt;br&gt;  &lt;/td&gt;  &lt;td width=&quot;72&quot; nowrap=&quot;&quot; style=&quot;width: 54pt; border-top: none; border-left: none; border-right: 1pt solid windowtext; padding: 0cm 1.4pt; height: 16.5pt;&quot;&gt;&lt;br&gt;  &lt;p class=&quot;MsoNormal&quot; align=&quot;center&quot; style=&quot;margin-bottom:0cm;text-align:center;&amp;lt;br/&amp;gt;  line-height:normal;mso-pagination:widow-orphan&quot;&gt;&lt;span lang=&quot;EN-US&quot; style=&quot;font-family: 新細明體, serif; color: black;&quot;&gt;+1&lt;/span&gt;&lt;/p&gt;&lt;br&gt;  &lt;/td&gt; &lt;/tr&gt; &lt;tr style=&quot;mso-yfti-irow:4;height:16.5pt&quot;&gt;  &lt;td width=&quot;72&quot; nowrap=&quot;&quot; style=&quot;width: 54pt; border: 1pt solid windowtext; height: 16.5pt;&quot;&gt;&lt;br&gt;  &lt;p class=&quot;MsoNormal&quot; align=&quot;center&quot; style=&quot;margin-bottom:0cm;text-align:center;&amp;lt;br/&amp;gt;  line-height:normal;mso-pagination:widow-orphan&quot;&gt;&lt;span lang=&quot;EN-US&quot; style=&quot;font-family: 新細明體, serif; color: black;&quot;&gt;3&lt;/span&gt;&lt;/p&gt;&lt;br&gt;  &lt;/td&gt;  &lt;td width=&quot;72&quot; nowrap=&quot;&quot; style=&quot;width: 54pt; border-top: none; border-left: none; border-right: 1pt solid windowtext; padding: 0cm 1.4pt; height: 16.5pt;&quot;&gt;&lt;br&gt;  &lt;p class=&quot;MsoNormal&quot; align=&quot;center&quot; style=&quot;margin-bottom:0cm;text-align:center;&amp;lt;br/&amp;gt;  line-height:normal;mso-pagination:widow-orphan&quot;&gt;&lt;span lang=&quot;EN-US&quot; style=&quot;font-family: 新細明體, serif; color: black;&quot;&gt;+2&lt;/span&gt;&lt;/p&gt;&lt;br&gt;  &lt;/td&gt;  &lt;td width=&quot;72&quot; nowrap=&quot;&quot; style=&quot;width: 54pt; border-top: none; border-left: none; border-right: 1pt solid windowtext; padding: 0cm 1.4pt; height: 16.5pt;&quot;&gt;&lt;br&gt;  &lt;p class=&quot;MsoNormal&quot; align=&quot;center&quot; style=&quot;margin-bottom:0cm;text-align:center;&amp;lt;br/&amp;gt;  line-height:normal;mso-pagination:widow-orphan&quot;&gt;&lt;span lang=&quot;EN-US&quot; style=&quot;font-family: 新細明體, serif; color: black;&quot;&gt;-1&lt;/span&gt;&lt;/p&gt;&lt;br&gt;  &lt;/td&gt; &lt;/tr&gt; &lt;tr style=&quot;mso-yfti-irow:5;height:16.5pt&quot;&gt;  &lt;td width=&quot;72&quot; nowrap=&quot;&quot; style=&quot;width: 54pt; border: 1pt solid windowtext; height: 16.5pt;&quot;&gt;&lt;br&gt;  &lt;p class=&quot;MsoNormal&quot; align=&quot;center&quot; style=&quot;margin-bottom:0cm;text-align:center;&amp;lt;br/&amp;gt;  line-height:normal;mso-pagination:widow-orphan&quot;&gt;&lt;span lang=&quot;EN-US&quot; style=&quot;font-family: 新細明體, serif; color: black;&quot;&gt;4&lt;/span&gt;&lt;/p&gt;&lt;br&gt;  &lt;/td&gt;  &lt;td width=&quot;72&quot; nowrap=&quot;&quot; style=&quot;width: 54pt; border-top: none; border-left: none; border-right: 1pt solid windowtext; padding: 0cm 1.4pt; height: 16.5pt;&quot;&gt;&lt;br&gt;  &lt;p class=&quot;MsoNormal&quot; align=&quot;center&quot; style=&quot;margin-bottom:0cm;text-align:center;&amp;lt;br/&amp;gt;  line-height:normal;mso-pagination:widow-orphan&quot;&gt;&lt;span lang=&quot;EN-US&quot; style=&quot;font-family: 新細明體, serif; color: black;&quot;&gt;+1&lt;/span&gt;&lt;/p&gt;&lt;br&gt;  &lt;/td&gt;  &lt;td width=&quot;72&quot; nowrap=&quot;&quot; style=&quot;width: 54pt; border-top: none; border-left: none; border-right: 1pt solid windowtext; padding: 0cm 1.4pt; height: 16.5pt;&quot;&gt;&lt;br&gt;  &lt;p class=&quot;MsoNormal&quot; align=&quot;center&quot; style=&quot;margin-bottom:0cm;text-align:center;&amp;lt;br/&amp;gt;  line-height:normal;mso-pagination:widow-orphan&quot;&gt;&lt;span lang=&quot;EN-US&quot; style=&quot;font-family: 新細明體, serif; color: black;&quot;&gt;-2&lt;/span&gt;&lt;/p&gt;&lt;br&gt;  &lt;/td&gt; &lt;/tr&gt; &lt;tr style=&quot;mso-yfti-irow:6;height:16.5pt&quot;&gt;  &lt;td width=&quot;72&quot; nowrap=&quot;&quot; style=&quot;width: 54pt; border: 1pt solid windowtext; height: 16.5pt;&quot;&gt;&lt;br&gt;  &lt;p class=&quot;MsoNormal&quot; align=&quot;center&quot; style=&quot;margin-bottom:0cm;text-align:center;&amp;lt;br/&amp;gt;  line-height:normal;mso-pagination:widow-orphan&quot;&gt;&lt;span lang=&quot;EN-US&quot; style=&quot;font-family: 新細明體, serif; color: black;&quot;&gt;5&lt;/span&gt;&lt;/p&gt;&lt;br&gt;  &lt;/td&gt;  &lt;td width=&quot;72&quot; nowrap=&quot;&quot; style=&quot;width: 54pt; border-top: none; border-left: none; border-right: 1pt solid windowtext; padding: 0cm 1.4pt; height: 16.5pt;&quot;&gt;&lt;br&gt;  &lt;p class=&quot;MsoNormal&quot; align=&quot;center&quot; style=&quot;margin-bottom:0cm;text-align:center;&amp;lt;br/&amp;gt;  line-height:normal;mso-pagination:widow-orphan&quot;&gt;&lt;span lang=&quot;EN-US&quot; style=&quot;font-family: 新細明體, serif; color: black;&quot;&gt;-1&lt;/span&gt;&lt;/p&gt;&lt;br&gt;  &lt;/td&gt;  &lt;td width=&quot;72&quot; nowrap=&quot;&quot; style=&quot;width: 54pt; border-top: none; border-left: none; border-right: 1pt solid windowtext; padding: 0cm 1.4pt; height: 16.5pt;&quot;&gt;&lt;br&gt;  &lt;p class=&quot;MsoNormal&quot; align=&quot;center&quot; style=&quot;margin-bottom:0cm;text-align:center;&amp;lt;br/&amp;gt;  line-height:normal;mso-pagination:widow-orphan&quot;&gt;&lt;span lang=&quot;EN-US&quot; style=&quot;font-family: 新細明體, serif; color: black;&quot;&gt;-2&lt;/span&gt;&lt;/p&gt;&lt;br&gt;  &lt;/td&gt; &lt;/tr&gt; &lt;tr style=&quot;mso-yfti-irow:7;height:16.5pt&quot;&gt;  &lt;td width=&quot;72&quot; nowrap=&quot;&quot; style=&quot;width: 54pt; border: 1pt solid windowtext; height: 16.5pt;&quot;&gt;&lt;br&gt;  &lt;p class=&quot;MsoNormal&quot; align=&quot;center&quot; style=&quot;margin-bottom:0cm;text-align:center;&amp;lt;br/&amp;gt;  line-height:normal;mso-pagination:widow-orphan&quot;&gt;&lt;span lang=&quot;EN-US&quot; style=&quot;font-family: 新細明體, serif; color: black;&quot;&gt;6&lt;/span&gt;&lt;/p&gt;&lt;br&gt;  &lt;/td&gt;  &lt;td width=&quot;72&quot; nowrap=&quot;&quot; style=&quot;width: 54pt; border-top: none; border-left: none; border-right: 1pt solid windowtext; padding: 0cm 1.4pt; height: 16.5pt;&quot;&gt;&lt;br&gt;  &lt;p class=&quot;MsoNormal&quot; align=&quot;center&quot; style=&quot;margin-bottom:0cm;text-align:center;&amp;lt;br/&amp;gt;  line-height:normal;mso-pagination:widow-orphan&quot;&gt;&lt;span lang=&quot;EN-US&quot; style=&quot;font-family: 新細明體, serif; color: black;&quot;&gt;-2&lt;/span&gt;&lt;/p&gt;&lt;br&gt;  &lt;/td&gt;  &lt;td width=&quot;72&quot; nowrap=&quot;&quot; style=&quot;width: 54pt; border-top: none; border-left: none; border-right: 1pt solid windowtext; padding: 0cm 1.4pt; height: 16.5pt;&quot;&gt;&lt;br&gt;  &lt;p class=&quot;MsoNormal&quot; align=&quot;center&quot; style=&quot;margin-bottom:0cm;text-align:center;&amp;lt;br/&amp;gt;  line-height:normal;mso-pagination:widow-orphan&quot;&gt;&lt;span lang=&quot;EN-US&quot; style=&quot;font-family: 新細明體, serif; color: black;&quot;&gt;-1&lt;/span&gt;&lt;/p&gt;&lt;br&gt;  &lt;/td&gt; &lt;/tr&gt; &lt;tr style=&quot;mso-yfti-irow:8;mso-yfti-lastrow:yes;height:16.5pt&quot;&gt;  &lt;td width=&quot;72&quot; nowrap=&quot;&quot; style=&quot;width: 54pt; border: 1pt solid windowtext; height: 16.5pt;&quot;&gt;&lt;br&gt;  &lt;p class=&quot;MsoNormal&quot; align=&quot;center&quot; style=&quot;margin-bottom:0cm;text-align:center;&amp;lt;br/&amp;gt;  line-height:normal;mso-pagination:widow-orphan&quot;&gt;&lt;span lang=&quot;EN-US&quot; style=&quot;font-family: 新細明體, serif; color: black;&quot;&gt;7&lt;/span&gt;&lt;/p&gt;&lt;br&gt;  &lt;/td&gt;  &lt;td width=&quot;72&quot; nowrap=&quot;&quot; style=&quot;width: 54pt; border-top: none; border-left: none; border-right: 1pt solid windowtext; padding: 0cm 1.4pt; height: 16.5pt;&quot;&gt;&lt;br&gt;  &lt;p class=&quot;MsoNormal&quot; align=&quot;center&quot; style=&quot;margin-bottom:0cm;text-align:center;&amp;lt;br/&amp;gt;  line-height:normal;mso-pagination:widow-orphan&quot;&gt;&lt;span lang=&quot;EN-US&quot; style=&quot;font-family: 新細明體, serif; color: black;&quot;&gt;-2&lt;/span&gt;&lt;/p&gt;&lt;br&gt;  &lt;/td&gt;  &lt;td width=&quot;72&quot; nowrap=&quot;&quot; style=&quot;width: 54pt; border-top: none; border-left: none; border-right: 1pt solid windowtext; padding: 0cm 1.4pt; height: 16.5pt;&quot;&gt;&lt;br&gt;  &lt;p class=&quot;MsoNormal&quot; align=&quot;center&quot; style=&quot;margin-bottom:0cm;text-align:center;&amp;lt;br/&amp;gt;  line-height:normal;mso-pagination:widow-orphan&quot;&gt;&lt;span lang=&quot;EN-US&quot; style=&quot;font-family: 新細明體, serif; color: black;&quot;&gt;+1&lt;/span&gt;&lt;/p&gt;&lt;br&gt;  &lt;/td&gt; &lt;/tr&gt;&lt;/tbody&gt;&lt;/table&gt;" style="text;whiteSpace=wrap;html=1;" vertex="1" parent="1">
          <mxGeometry x="1700" y="890" width="250" height="530" as="geometry" />
        </mxCell>
      </root>
    </mxGraphModel>
  </diagram>
</mxfile>
